<?xml version="1.0" encoding="UTF-8" standalone="no"?>
<!DOCTYPE svg PUBLIC "-//W3C//DTD SVG 1.1//EN" "http://www.w3.org/Graphics/SVG/1.1/DTD/svg11.dtd">
<svg width="100%" height="100%" viewBox="0 0 182 182" version="1.1" xmlns="http://www.w3.org/2000/svg" xmlns:xlink="http://www.w3.org/1999/xlink" xml:space="preserve" xmlns:serif="http://www.serif.com/" style="fill-rule:evenodd;clip-rule:evenodd;stroke-linecap:round;stroke-linejoin:round;">
    <path d="M172,119.337C156.715,125.484 139.96,127.002 123.819,123.705C107.677,120.407 92.861,112.438 81.211,100.789C69.562,89.139 61.593,74.323 58.295,58.181C54.998,42.04 56.517,25.285 62.663,10C44.562,17.291 29.561,30.651 20.232,47.791C10.902,64.93 7.825,84.781 11.528,103.941C15.231,123.101 25.483,140.376 40.527,152.804C55.572,165.233 74.471,172.042 93.985,172.063C110.766,172.063 127.163,167.042 141.066,157.646C154.969,148.249 165.743,134.907 172,119.337Z" style="fill:none;fill-rule:nonzero;stroke:white;stroke-width:18.68px;"/>
</svg>
