<?xml version="1.0" encoding="UTF-8" standalone="no"?>
<!DOCTYPE svg PUBLIC "-//W3C//DTD SVG 1.1//EN" "http://www.w3.org/Graphics/SVG/1.1/DTD/svg11.dtd">
<svg width="100%" height="100%" viewBox="0 0 182 182" version="1.1" xmlns="http://www.w3.org/2000/svg" xmlns:xlink="http://www.w3.org/1999/xlink" xml:space="preserve" xmlns:serif="http://www.serif.com/" style="fill-rule:evenodd;clip-rule:evenodd;stroke-linecap:round;stroke-linejoin:round;">
    <g transform="matrix(0.778439,0,0,0.778439,0.701024,0.701024)">
        <path d="M116,12L116,23.556L116,12ZM116,208.444L116,220L116,208.444ZM220,116L208.444,116L220,116ZM23.556,116L12,116L23.556,116ZM189.54,189.54L181.37,181.37L189.54,189.54ZM50.63,50.63L42.46,42.46L50.63,50.63ZM189.54,42.46L181.37,50.63L189.54,42.46ZM50.63,181.37L42.46,189.54L50.63,181.37ZM162.222,116C162.222,128.259 157.352,140.016 148.684,148.684C140.016,157.352 128.259,162.222 116,162.222C103.741,162.222 91.984,157.352 83.316,148.684C74.648,140.016 69.778,128.259 69.778,116C69.778,103.741 74.648,91.984 83.316,83.316C91.984,74.648 103.741,69.778 116,69.778C128.259,69.778 140.016,74.648 148.684,83.316C157.352,91.984 162.222,103.741 162.222,116Z" style="fill:none;fill-rule:nonzero;stroke:white;stroke-width:23.11px;"/>
    </g>
</svg>
